<svg height="512" viewBox="0 0 192 192" width="512" xmlns="http://www.w3.org/2000/svg"><g id="_27-check_list" data-name="27-check list"><path d="m168 16h-40a16.019 16.019 0 0 0 -16-16h-32a16.019 16.019 0 0 0 -16 16h-40a8 8 0 0 0 -8 8v160a8 8 0 0 0 8 8h144a8 8 0 0 0 8-8v-160a8 8 0 0 0 -8-8zm-88 0h32v16h-32zm80 160h-128v-144h32v8a8 8 0 0 0 8 8h48a8 8 0 0 0 8-8v-8h32z"/><path d="m61.261 69.687-9.683-4.842-7.156 14.31 16 8a8.073 8.073 0 0 0 10.234-2.717l16-24-13.312-8.875z"/><path d="m96 64h48v16h-48z"/><path d="m61.261 109.687-9.683-4.842-7.156 14.31 16 8a8.073 8.073 0 0 0 10.234-2.717l16-24-13.312-8.875z"/><path d="m96 104h48v16h-48z"/><path d="m61.261 149.687-9.683-4.842-7.156 14.31 16 8a8.073 8.073 0 0 0 10.234-2.717l16-24-13.312-8.875z"/><path d="m96 144h48v16h-48z"/></g></svg>