<svg height="512" viewBox="0 0 192 192" width="512" xmlns="http://www.w3.org/2000/svg"><path d="m189.02 25.609-22.627-22.628a8 8 0 0 0 -9.953-1.093c-57.686 36.71-100.326 96-108.481 107.8l-37.453 16.047a8 8 0 0 0 -4.439 9.883c.1.293 9.384 29.617-3.724 42.725a8.079 8.079 0 0 0 0 11.314 8.078 8.078 0 0 0 11.314 0c10.983-10.984 34.576-6.409 42.725-3.724a8 8 0 0 0 9.884-4.438l16.051-37.455c11.8-8.156 71.086-50.795 107.794-108.48a8 8 0 0 0 -1.091-9.951zm-110.62 70.396 17.6 17.595c-8.133 6.583-14.869 11.6-19.21 14.731l-13.125-13.117c3.135-4.342 8.149-11.077 14.735-19.209zm-24.123 72.843a91.3 91.3 0 0 0 -17.665-2.148l16.643-16.642-11.315-11.313-16.633 16.633a91.047 91.047 0 0 0 -2.155-17.655l28.276-12.123 14.972 14.973zm54.036-65.555-19.606-19.605c17.71-20.463 42.444-45.578 70.971-64.794l13.428 13.429c-19.217 28.527-44.331 53.26-64.793 70.97z"/></svg>