<svg height="512" viewBox="0 0 192 192" width="512" xmlns="http://www.w3.org/2000/svg"><g id="_19-slip" data-name="19-slip"><path d="m165.657 50.343-14.434-14.434-7.462-29.849a8 8 0 0 0 -7.761-6.06h-80a8 8 0 0 0 -7.761 6.06l-8 32a7.975 7.975 0 0 0 -.166 2.94l-12.51 8.341a8 8 0 0 0 -3.563 6.659v50.364c-7.37 2.957-13.13 8.46-15.172 15.2-1.8 5.938-2.243 17.612 14.973 29.088 2.861 1.908 5.954 3.625 8.945 5.285 5.468 3.037 12.956 7.195 13.408 10.423.127.907-.043 4.449-7.573 11.979l11.319 11.318c9.253-9.255 13.212-17.6 12.1-25.514-1.56-11.125-12.145-17-21.486-22.19-2.837-1.574-5.516-3.062-7.837-4.609-6.113-4.074-9.377-8.344-8.535-11.139.888-2.934 6.075-6.2 12.1-6.2h19.758a8 8 0 0 0 8-8v-16.005h64v10.364c-7.37 2.957-13.13 8.46-15.172 15.2-1.8 5.938-2.243 17.612 14.973 29.088 2.861 1.908 5.954 3.625 8.945 5.285 5.468 3.037 12.956 7.195 13.408 10.423.127.907-.043 4.449-7.573 11.979l11.319 11.318c9.253-9.255 13.212-17.6 12.1-25.514-1.56-11.125-12.145-17-21.486-22.19-2.837-1.574-5.516-3.062-7.837-4.609-6.112-4.074-9.381-8.342-8.534-11.139.888-2.934 6.075-6.2 12.1-6.2h19.757a8 8 0 0 0 8-8v-56.005a8 8 0 0 0 -2.343-5.657zm-103.411-34.343h67.508l4 16h-75.508zm-22.246 44.281 18.422-12.281h82.265l11.313 11.313v20.687h-112zm8 43.719h-8v-8h8zm104 0h-8v-8h8z"/><circle cx="56" cy="64" r="8"/><circle cx="136" cy="64" r="8"/><path d="m72 56h48v16h-48z"/></g></svg>